<svg width="104" height="104" viewBox="0 0 104 104" fill="none" xmlns="http://www.w3.org/2000/svg">
<path d="M58.5 87.75V16.25C58.5 15.388 58.1576 14.5614 57.5481 13.9519C56.9386 13.3424 56.112 13 55.25 13H16.25C15.388 13 14.5614 13.3424 13.9519 13.9519C13.3424 14.5614 13 15.388 13 16.25V87.75" stroke="url(#paint0_linear_1_4308)" stroke-width="3" stroke-linecap="round" stroke-linejoin="round"/>
<path d="M91 87.75V42.25C91 41.388 90.6576 40.5614 90.0481 39.9519C89.4386 39.3424 88.612 39 87.75 39H58.5" stroke="url(#paint1_linear_1_4308)" stroke-width="3" stroke-linecap="round" stroke-linejoin="round"/>
<path d="M26 29.25H39" stroke="url(#paint2_linear_1_4308)" stroke-width="3" stroke-linecap="round" stroke-linejoin="round"/>
<path d="M32.5 55.25H45.5" stroke="url(#paint3_linear_1_4308)" stroke-width="3" stroke-linecap="round" stroke-linejoin="round"/>
<path d="M26 71.5H39" stroke="url(#paint4_linear_1_4308)" stroke-width="3" stroke-linecap="round" stroke-linejoin="round"/>
<path d="M71.5 71.5H78" stroke="url(#paint5_linear_1_4308)" stroke-width="3" stroke-linecap="round" stroke-linejoin="round"/>
<path d="M71.5 55.25H78" stroke="url(#paint6_linear_1_4308)" stroke-width="3" stroke-linecap="round" stroke-linejoin="round"/>
<defs>
<linearGradient id="paint0_linear_1_4308" x1="35.75" y1="13" x2="35.75" y2="87.75" gradientUnits="userSpaceOnUse">
<stop stop-color="#FFBB50"/>
<stop offset="1" stop-color="#FF935E" stop-opacity="0"/>
</linearGradient>
<linearGradient id="paint1_linear_1_4308" x1="74.75" y1="39" x2="74.75" y2="87.75" gradientUnits="userSpaceOnUse">
<stop stop-color="#FFBB50"/>
<stop offset="1" stop-color="#FF935E" stop-opacity="0"/>
</linearGradient>
<linearGradient id="paint2_linear_1_4308" x1="32.5" y1="29.25" x2="32.5" y2="30.25" gradientUnits="userSpaceOnUse">
<stop stop-color="#FFBB50"/>
<stop offset="1" stop-color="#FF935E" stop-opacity="0"/>
</linearGradient>
<linearGradient id="paint3_linear_1_4308" x1="39" y1="55.25" x2="39" y2="56.25" gradientUnits="userSpaceOnUse">
<stop stop-color="#FFBB50"/>
<stop offset="1" stop-color="#FF935E" stop-opacity="0"/>
</linearGradient>
<linearGradient id="paint4_linear_1_4308" x1="32.5" y1="71.5" x2="32.5" y2="72.5" gradientUnits="userSpaceOnUse">
<stop stop-color="#FFBB50"/>
<stop offset="1" stop-color="#FF935E" stop-opacity="0"/>
</linearGradient>
<linearGradient id="paint5_linear_1_4308" x1="74.75" y1="71.5" x2="74.75" y2="72.5" gradientUnits="userSpaceOnUse">
<stop stop-color="#FFBB50"/>
<stop offset="1" stop-color="#FF935E" stop-opacity="0"/>
</linearGradient>
<linearGradient id="paint6_linear_1_4308" x1="74.75" y1="55.25" x2="74.75" y2="56.25" gradientUnits="userSpaceOnUse">
<stop stop-color="#FFBB50"/>
<stop offset="1" stop-color="#FF935E" stop-opacity="0"/>
</linearGradient>
</defs>
</svg>
