<svg width="21" height="18" viewBox="0 0 21 18" fill="none" xmlns="http://www.w3.org/2000/svg">
<path d="M5.5 15V17" stroke="#3B3A5D" stroke-width="1.5" stroke-linecap="round" stroke-linejoin="round"/>
<path d="M14.5 15V17" stroke="#3B3A5D" stroke-width="1.5" stroke-linecap="round" stroke-linejoin="round"/>
<path d="M4.5 8V2.94444C4.5 2.42875 4.65804 1.93417 4.93934 1.56951C5.22064 1.20486 5.60218 1 6 1C6.39782 1 6.77936 1.20486 7.06066 1.56951C7.34196 1.93417 7.5 2.42875 7.5 2.94444" stroke="#3B3A5D" stroke-width="1.5" stroke-linecap="round" stroke-linejoin="round"/>
<path d="M16.5 7H11.5V10H16.5V7Z" stroke="#3B3A5D" stroke-width="1.5" stroke-linecap="round" stroke-linejoin="round"/>
<path d="M16.2857 8H18.8571C19.0276 8 19.1912 8.06705 19.3117 8.18639C19.4323 8.30573 19.5 8.46759 19.5 8.63636V11.1818C19.5 12.1945 19.0936 13.1656 18.3703 13.8817C17.6469 14.5977 16.6658 15 15.6429 15H5.35714C4.33416 15 3.35309 14.5977 2.62973 13.8817C1.90638 13.1656 1.5 12.1945 1.5 11.1818V8.63636C1.5 8.46759 1.56773 8.30573 1.68829 8.18639C1.80885 8.06705 1.97236 8 2.14286 8H11.1429" stroke="#3B3A5D" stroke-width="1.5" stroke-linecap="round" stroke-linejoin="round"/>
</svg>
