<svg width="19" height="26" viewBox="0 0 19 26" fill="none" xmlns="http://www.w3.org/2000/svg">
<path d="M9.5 0C4.53144 0 0.5 3.74388 0.5 8.35714C0.5 15.7857 9.5 26 9.5 26C9.5 26 18.5 15.7857 18.5 8.35714C18.5 3.74388 14.4686 0 9.5 0ZM9.5 13C8.78799 13 8.09196 12.7822 7.49995 12.374C6.90793 11.9659 6.44651 11.3858 6.17403 10.7071C5.90156 10.0284 5.83027 9.28159 5.96917 8.56109C6.10808 7.84059 6.45095 7.17877 6.95442 6.65932C7.45788 6.13986 8.09934 5.78611 8.79768 5.6428C9.49601 5.49948 10.2198 5.57304 10.8777 5.85416C11.5355 6.13529 12.0977 6.61136 12.4933 7.22217C12.8889 7.83298 13.1 8.5511 13.1 9.28571C13.099 10.2705 12.7193 11.2146 12.0444 11.9109C11.3695 12.6073 10.4545 12.9989 9.5 13Z" fill="#FFBB50"/>
</svg>
