<svg width="19" height="17" viewBox="0 0 19 17" fill="none" xmlns="http://www.w3.org/2000/svg">
<path d="M16.625 0.5H2.375C1.74532 0.500722 1.14162 0.769135 0.696365 1.24634C0.251112 1.72355 0.000673578 2.37058 0 3.04545V13.9545C0.000673578 14.6294 0.251112 15.2764 0.696365 15.7537C1.14162 16.2309 1.74532 16.4993 2.375 16.5H16.625C17.2547 16.4993 17.8584 16.2309 18.3036 15.7537C18.7489 15.2764 18.9993 14.6294 19 13.9545V3.04545C18.9993 2.37058 18.7489 1.72355 18.3036 1.24634C17.8584 0.769135 17.2547 0.500722 16.625 0.5ZM16.0236 4.71045L9.91647 9.80136C9.79738 9.90059 9.65084 9.95445 9.5 9.95445C9.34916 9.95445 9.20262 9.90059 9.08353 9.80136L2.97638 4.71045C2.90463 4.65238 2.84436 4.5796 2.79908 4.49634C2.7538 4.41309 2.72441 4.32102 2.71261 4.22548C2.70082 4.12995 2.70685 4.03285 2.73037 3.93984C2.75389 3.84683 2.79443 3.75975 2.84962 3.68367C2.90481 3.6076 2.97356 3.54403 3.05187 3.49668C3.13018 3.44932 3.21649 3.41912 3.30578 3.40782C3.39508 3.39653 3.48558 3.40436 3.57202 3.43088C3.65846 3.45739 3.73913 3.50206 3.80933 3.56227L9.5 8.30591L15.1907 3.56227C15.333 3.4471 15.5118 3.39659 15.6886 3.42166C15.8654 3.44673 16.0259 3.54536 16.1353 3.69624C16.2448 3.84711 16.2944 4.0381 16.2735 4.22789C16.2526 4.41769 16.1628 4.59104 16.0236 4.71045Z" fill="#FFBB50"/>
</svg>
