<svg width="16" height="23" viewBox="0 0 16 23" fill="none" xmlns="http://www.w3.org/2000/svg">
<path d="M8 0C3.5835 0 0 3.3119 0 7.39286C0 13.9643 8 23 8 23C8 23 16 13.9643 16 7.39286C16 3.3119 12.4165 0 8 0ZM8 11.5C7.3671 11.5 6.74841 11.3073 6.22218 10.9463C5.69594 10.5852 5.28579 10.0721 5.04359 9.47167C4.80138 8.87129 4.73801 8.21064 4.86149 7.57328C4.98496 6.93591 5.28973 6.35045 5.73726 5.89093C6.18479 5.43142 6.75497 5.11849 7.37571 4.99171C7.99645 4.86493 8.63986 4.92999 9.22459 5.17868C9.80931 5.42737 10.3091 5.84851 10.6607 6.38884C11.0123 6.92917 11.2 7.56443 11.2 8.21429C11.1991 9.08542 10.8616 9.9206 10.2617 10.5366C9.6618 11.1526 8.84841 11.499 8 11.5Z" fill="#3B3A5D"/>
</svg>
