<svg width="145" height="36" viewBox="0 0 145 36" fill="none" xmlns="http://www.w3.org/2000/svg">
<path d="M54.549 27.5H49.932L42.21 15.782V27.5H37.593V8.411H42.21L49.932 20.237V8.411H54.549V27.5ZM64.7845 12.245C66.2785 12.245 67.6105 12.56 68.7805 13.19C69.9685 13.802 70.8955 14.693 71.5615 15.863C72.2455 17.033 72.5875 18.401 72.5875 19.967C72.5875 21.533 72.2455 22.901 71.5615 24.071C70.8955 25.241 69.9685 26.141 68.7805 26.771C67.6105 27.383 66.2785 27.689 64.7845 27.689C63.2905 27.689 61.9495 27.383 60.7615 26.771C59.5735 26.141 58.6375 25.241 57.9535 24.071C57.2875 22.901 56.9545 21.533 56.9545 19.967C56.9545 18.401 57.2875 17.033 57.9535 15.863C58.6375 14.693 59.5735 13.802 60.7615 13.19C61.9495 12.56 63.2905 12.245 64.7845 12.245ZM64.7845 16.241C63.9025 16.241 63.1555 16.565 62.5435 17.213C61.9495 17.843 61.6525 18.761 61.6525 19.967C61.6525 21.173 61.9495 22.091 62.5435 22.721C63.1555 23.351 63.9025 23.666 64.7845 23.666C65.6665 23.666 66.4045 23.351 66.9985 22.721C67.5925 22.091 67.8895 21.173 67.8895 19.967C67.8895 18.761 67.5925 17.843 66.9985 17.213C66.4045 16.565 65.6665 16.241 64.7845 16.241ZM73.6857 12.731V8.411H81.4077V27.5H76.5477V12.731H73.6857ZM98.732 8.222C101.162 8.222 103.169 8.861 104.753 10.139C106.355 11.417 107.39 13.145 107.858 15.323H102.971C102.611 14.441 102.053 13.748 101.297 13.244C100.559 12.74 99.677 12.488 98.651 12.488C97.301 12.488 96.212 12.983 95.384 13.973C94.556 14.963 94.142 16.286 94.142 17.942C94.142 19.598 94.556 20.921 95.384 21.911C96.212 22.883 97.301 23.369 98.651 23.369C99.677 23.369 100.559 23.117 101.297 22.613C102.053 22.109 102.611 21.425 102.971 20.561H107.858C107.39 22.721 106.355 24.449 104.753 25.745C103.169 27.023 101.162 27.662 98.732 27.662C96.878 27.662 95.249 27.257 93.845 26.447C92.441 25.619 91.352 24.467 90.578 22.991C89.822 21.515 89.444 19.832 89.444 17.942C89.444 16.052 89.822 14.369 90.578 12.893C91.352 11.417 92.441 10.274 93.845 9.464C95.249 8.636 96.878 8.222 98.732 8.222ZM110.014 8.195C110.014 7.493 110.266 6.917 110.77 6.467C111.274 5.999 111.94 5.765 112.768 5.765C113.596 5.765 114.262 5.999 114.766 6.467C115.27 6.917 115.522 7.493 115.522 8.195C115.522 8.879 115.27 9.455 114.766 9.923C114.262 10.373 113.596 10.598 112.768 10.598C111.94 10.598 111.274 10.373 110.77 9.923C110.266 9.455 110.014 8.879 110.014 8.195ZM115.063 12.434V27.5H110.446V12.434H115.063ZM126.782 23.531V27.5H124.703C122.939 27.5 121.562 27.068 120.572 26.204C119.6 25.322 119.114 23.873 119.114 21.857V16.322H117.089V12.434H119.114V8.735H123.731V12.434H126.755V16.322H123.731V21.938C123.731 22.532 123.848 22.946 124.082 23.18C124.334 23.414 124.748 23.531 125.324 23.531H126.782ZM132.86 12.434L136.478 21.668L139.853 12.434H144.956L135.56 34.682H130.484L134.021 26.933L127.703 12.434H132.86Z" fill="#C9B7AD"/>
<rect y="3.5" width="9" height="9" fill="#AD7B62"/>
<rect y="12.5" width="9" height="10" fill="#C9B7AD"/>
<rect y="22.5" width="9" height="9" fill="#B59381"/>
<rect x="9" y="3.5" width="10" height="9" fill="#C9B7AD"/>
<rect x="9" y="22.5" width="10" height="9" fill="#C9B7AD"/>
<rect x="19" y="3.5" width="9" height="9" fill="#B59381"/>
<rect x="19" y="12.5" width="9" height="10" fill="#C9B7AD"/>
<rect x="19" y="22.5" width="9" height="9" fill="#AD7B62"/>
<rect x="5" y="8.5" width="18" height="18" fill="#F5F1EF"/>
</svg>
