<svg width="115" height="35" viewBox="0 0 115 35" fill="none" xmlns="http://www.w3.org/2000/svg">
<path d="M49.1083 9.884C49.0363 10.802 48.9823 11.684 48.9463 12.53C48.9283 13.376 48.9193 14.024 48.9193 14.474C48.9193 14.87 48.9283 15.248 48.9463 15.608C48.9643 15.968 48.9823 16.274 49.0003 16.526H48.3793C48.0913 15.014 47.7223 13.817 47.2723 12.935C46.8403 12.053 46.3183 11.432 45.7063 11.072C45.0943 10.694 44.3743 10.505 43.5463 10.505H42.9253V25.922C42.9253 26.642 42.9973 27.182 43.1413 27.542C43.3033 27.902 43.5913 28.145 44.0053 28.271C44.4193 28.379 45.0223 28.442 45.8143 28.46V29C45.2563 28.982 44.5093 28.964 43.5733 28.946C42.6553 28.928 41.6923 28.919 40.6843 28.919C39.6943 28.919 38.7583 28.928 37.8763 28.946C36.9943 28.964 36.2833 28.982 35.7433 29V28.46C36.5533 28.442 37.1653 28.379 37.5793 28.271C37.9933 28.145 38.2723 27.902 38.4163 27.542C38.5603 27.182 38.6323 26.642 38.6323 25.922V10.505H38.0383C37.2103 10.505 36.4903 10.694 35.8783 11.072C35.2663 11.432 34.7443 12.053 34.3123 12.935C33.8803 13.799 33.5023 14.996 33.1783 16.526H32.5573C32.5933 16.274 32.6113 15.968 32.6113 15.608C32.6293 15.248 32.6383 14.87 32.6383 14.474C32.6383 14.024 32.6203 13.376 32.5843 12.53C32.5663 11.684 32.5213 10.802 32.4493 9.884C33.2773 9.902 34.1773 9.92 35.1493 9.938C36.1393 9.956 37.1293 9.965 38.1193 9.965C39.1093 9.965 40.0003 9.965 40.7923 9.965C41.6023 9.965 42.4933 9.965 43.4653 9.965C44.4553 9.965 45.4453 9.956 46.4353 9.938C47.4253 9.92 48.3163 9.902 49.1083 9.884ZM53.4979 29.189C52.6879 29.189 52.0129 29.036 51.4729 28.73C50.9329 28.424 50.5369 28.019 50.2849 27.515C50.0329 26.993 49.9069 26.426 49.9069 25.814C49.9069 25.04 50.0779 24.41 50.4199 23.924C50.7799 23.438 51.2389 23.042 51.7969 22.736C52.3549 22.43 52.9399 22.178 53.5519 21.98C54.1819 21.782 54.7759 21.593 55.3339 21.413C55.9099 21.215 56.3689 20.99 56.7109 20.738C57.0709 20.468 57.2509 20.126 57.2509 19.712V17.606C57.2509 17.138 57.1699 16.724 57.0079 16.364C56.8639 15.986 56.6299 15.698 56.3059 15.5C55.9999 15.302 55.5949 15.203 55.0909 15.203C54.7309 15.203 54.3709 15.257 54.0109 15.365C53.6509 15.455 53.3539 15.617 53.1199 15.851C53.6239 16.031 54.0109 16.31 54.2809 16.688C54.5689 17.048 54.7129 17.462 54.7129 17.93C54.7129 18.542 54.4969 19.028 54.0649 19.388C53.6509 19.748 53.1559 19.928 52.5799 19.928C51.9319 19.928 51.4369 19.73 51.0949 19.334C50.7709 18.92 50.6089 18.425 50.6089 17.849C50.6089 17.327 50.7349 16.895 50.9869 16.553C51.2569 16.211 51.6259 15.887 52.0939 15.581C52.5979 15.293 53.2009 15.068 53.9029 14.906C54.6229 14.744 55.3969 14.663 56.2249 14.663C57.0529 14.663 57.7999 14.753 58.4659 14.933C59.1319 15.095 59.6899 15.401 60.1399 15.851C60.5539 16.265 60.8239 16.778 60.9499 17.39C61.0759 17.984 61.1389 18.74 61.1389 19.658V27.002C61.1389 27.452 61.1839 27.767 61.2739 27.947C61.3639 28.109 61.5169 28.19 61.7329 28.19C61.8949 28.19 62.0479 28.145 62.1919 28.055C62.3539 27.965 62.5249 27.857 62.7049 27.731L62.9749 28.19C62.5969 28.514 62.1559 28.766 61.6519 28.946C61.1659 29.108 60.6169 29.189 60.0049 29.189C59.3389 29.189 58.8079 29.099 58.4119 28.919C58.0159 28.721 57.7279 28.46 57.5479 28.136C57.3859 27.812 57.3049 27.434 57.3049 27.002C56.8729 27.686 56.3509 28.226 55.7389 28.622C55.1269 29 54.3799 29.189 53.4979 29.189ZM55.4149 27.461C55.7749 27.461 56.0989 27.38 56.3869 27.218C56.6929 27.038 56.9809 26.75 57.2509 26.354V20.819C57.0889 21.089 56.8639 21.332 56.5759 21.548C56.2879 21.764 55.9819 21.989 55.6579 22.223C55.3339 22.439 55.0189 22.682 54.7129 22.952C54.4249 23.222 54.1909 23.555 54.0109 23.951C53.8309 24.347 53.7409 24.824 53.7409 25.382C53.7409 26.084 53.8939 26.606 54.1999 26.948C54.5059 27.29 54.9109 27.461 55.4149 27.461ZM73.0346 14.663C73.6106 14.663 74.0786 14.789 74.4386 15.041C74.7986 15.275 75.0596 15.581 75.2216 15.959C75.4016 16.337 75.4916 16.733 75.4916 17.147C75.4916 17.813 75.2936 18.362 74.8976 18.794C74.5196 19.208 74.0156 19.415 73.3856 19.415C72.7556 19.415 72.2606 19.262 71.9006 18.956C71.5586 18.632 71.3876 18.209 71.3876 17.687C71.3876 17.183 71.4956 16.769 71.7116 16.445C71.9456 16.103 72.2336 15.815 72.5756 15.581C72.3236 15.509 72.0716 15.518 71.8196 15.608C71.4776 15.662 71.1536 15.806 70.8476 16.04C70.5416 16.256 70.2806 16.535 70.0646 16.877C69.8486 17.201 69.6776 17.561 69.5516 17.957C69.4256 18.335 69.3626 18.704 69.3626 19.064V26.219C69.3626 27.083 69.5696 27.668 69.9836 27.974C70.4156 28.28 71.0546 28.433 71.9006 28.433V29C71.4866 28.982 70.8836 28.964 70.0916 28.946C69.2996 28.91 68.4716 28.892 67.6076 28.892C66.8876 28.892 66.1586 28.91 65.4206 28.946C64.6826 28.964 64.1246 28.982 63.7466 29V28.433C64.3766 28.433 64.8176 28.298 65.0696 28.028C65.3396 27.758 65.4746 27.245 65.4746 26.489V17.984C65.4746 17.174 65.3486 16.58 65.0966 16.202C64.8626 15.806 64.4126 15.608 63.7466 15.608V15.041C64.3226 15.095 64.8806 15.122 65.4206 15.122C66.1766 15.122 66.8786 15.095 67.5266 15.041C68.1926 14.969 68.8046 14.87 69.3626 14.744V17.255C69.5786 16.769 69.8666 16.328 70.2266 15.932C70.5866 15.536 71.0006 15.23 71.4686 15.014C71.9366 14.78 72.4586 14.663 73.0346 14.663ZM81.5881 34.076C80.4721 34.076 79.4731 33.977 78.5911 33.779C77.7271 33.599 77.0431 33.311 76.5391 32.915C76.0531 32.537 75.8101 32.069 75.8101 31.511C75.8101 30.953 76.0621 30.449 76.5661 29.999C77.0701 29.567 77.8171 29.225 78.8071 28.973L79.0501 29.405C78.7081 29.675 78.4561 29.963 78.2941 30.269C78.1501 30.593 78.0781 30.926 78.0781 31.268C78.0781 32.024 78.4201 32.6 79.1041 32.996C79.8061 33.41 80.7511 33.617 81.9391 33.617C82.7491 33.617 83.4691 33.509 84.0991 33.293C84.7471 33.077 85.2511 32.753 85.6111 32.321C85.9891 31.889 86.1781 31.358 86.1781 30.728C86.1781 30.188 85.9801 29.729 85.5841 29.351C85.1881 28.991 84.3961 28.811 83.2081 28.811H81.5341C80.7961 28.811 80.1481 28.73 79.5901 28.568C79.0501 28.406 78.6271 28.154 78.3211 27.812C78.0151 27.452 77.8621 27.002 77.8621 26.462C77.8621 25.706 78.1591 25.04 78.7531 24.464C79.3471 23.888 80.2291 23.348 81.3991 22.844L81.6691 23.06C81.3271 23.276 81.0031 23.51 80.6971 23.762C80.4091 23.996 80.2651 24.302 80.2651 24.68C80.2651 25.256 80.6251 25.544 81.3451 25.544H84.2881C85.2781 25.544 86.1601 25.661 86.9341 25.895C87.7261 26.129 88.3471 26.516 88.7971 27.056C89.2651 27.578 89.4991 28.262 89.4991 29.108C89.4991 29.99 89.2111 30.809 88.6351 31.565C88.0771 32.321 87.2131 32.924 86.0431 33.374C84.8731 33.842 83.3881 34.076 81.5881 34.076ZM81.8581 23.249C80.8321 23.249 79.9141 23.096 79.1041 22.79C78.2941 22.484 77.6551 22.016 77.1871 21.386C76.7191 20.756 76.4851 19.946 76.4851 18.956C76.4851 17.966 76.7191 17.156 77.1871 16.526C77.6551 15.878 78.2941 15.41 79.1041 15.122C79.9141 14.816 80.8321 14.663 81.8581 14.663C82.8841 14.663 83.8021 14.816 84.6121 15.122C85.4221 15.41 86.0611 15.878 86.5291 16.526C86.9971 17.156 87.2311 17.966 87.2311 18.956C87.2311 19.946 86.9971 20.756 86.5291 21.386C86.0611 22.016 85.4221 22.484 84.6121 22.79C83.8021 23.096 82.8841 23.249 81.8581 23.249ZM81.8581 22.763C82.3441 22.763 82.7221 22.493 82.9921 21.953C83.2621 21.395 83.3971 20.396 83.3971 18.956C83.3971 17.516 83.2621 16.526 82.9921 15.986C82.7221 15.428 82.3441 15.149 81.8581 15.149C81.3901 15.149 81.0121 15.428 80.7241 15.986C80.4541 16.526 80.3191 17.516 80.3191 18.956C80.3191 20.396 80.4541 21.395 80.7241 21.953C81.0121 22.493 81.3901 22.763 81.8581 22.763ZM86.0701 16.985L85.5301 16.796C85.8001 16.094 86.2321 15.509 86.8261 15.041C87.4381 14.573 88.0951 14.339 88.7971 14.339C89.3731 14.339 89.8051 14.501 90.0931 14.825C90.3991 15.131 90.5521 15.536 90.5521 16.04C90.5521 16.58 90.4081 16.985 90.1201 17.255C89.8321 17.507 89.5081 17.633 89.1481 17.633C88.8421 17.633 88.5541 17.525 88.2841 17.309C88.0321 17.093 87.8881 16.769 87.8521 16.337C87.8161 15.887 87.9691 15.311 88.3111 14.609L88.5001 14.771C87.8161 15.023 87.3031 15.32 86.9611 15.662C86.6191 15.986 86.3221 16.427 86.0701 16.985ZM97.818 14.663C99.402 14.663 100.644 15.131 101.544 16.067C102.444 17.003 102.894 18.533 102.894 20.657H94.011L93.957 20.144H99.492C99.51 19.262 99.456 18.452 99.33 17.714C99.204 16.958 99.006 16.355 98.736 15.905C98.466 15.455 98.106 15.23 97.656 15.23C97.026 15.23 96.486 15.626 96.036 16.418C95.604 17.21 95.343 18.524 95.253 20.36L95.334 20.522C95.316 20.738 95.298 20.963 95.28 21.197C95.28 21.431 95.28 21.674 95.28 21.926C95.28 23.168 95.451 24.176 95.793 24.95C96.153 25.724 96.603 26.291 97.143 26.651C97.683 26.993 98.232 27.164 98.79 27.164C99.168 27.164 99.555 27.11 99.951 27.002C100.365 26.876 100.779 26.66 101.193 26.354C101.607 26.03 101.994 25.58 102.354 25.004L102.84 25.166C102.624 25.85 102.282 26.516 101.814 27.164C101.346 27.812 100.752 28.343 100.032 28.757C99.312 29.171 98.448 29.378 97.44 29.378C96.216 29.378 95.136 29.117 94.2 28.595C93.264 28.073 92.526 27.281 91.986 26.219C91.464 25.157 91.203 23.807 91.203 22.169C91.203 20.495 91.482 19.1 92.04 17.984C92.616 16.868 93.399 16.04 94.389 15.5C95.397 14.942 96.54 14.663 97.818 14.663ZM109.938 10.613V15.041H113.124V15.581H109.938V26.489C109.938 27.029 110.037 27.416 110.235 27.65C110.433 27.866 110.73 27.974 111.126 27.974C111.45 27.974 111.774 27.857 112.098 27.623C112.422 27.371 112.71 26.948 112.962 26.354L113.421 26.597C113.133 27.407 112.692 28.073 112.098 28.595C111.522 29.117 110.73 29.378 109.722 29.378C109.128 29.378 108.606 29.297 108.156 29.135C107.706 28.991 107.328 28.766 107.022 28.46C106.626 28.064 106.365 27.578 106.239 27.002C106.113 26.408 106.05 25.643 106.05 24.707V15.581H103.782V15.041H106.05V11.477C106.806 11.477 107.499 11.414 108.129 11.288C108.777 11.144 109.38 10.919 109.938 10.613Z" fill="#C9B7AD"/>
<rect x="0.5" y="5" width="26.2301" height="26" rx="5" fill="#C9B7AD"/>
<ellipse cx="13.615" cy="18" rx="5.04425" ry="5" fill="#C18F76"/>
<path d="M13.615 12.4V11M13.615 25V23.6M19.2646 18H20.677M6.5531 18H7.96549M13.615 12.96C12.6094 12.96 11.6264 13.2556 10.7902 13.8094C9.95404 14.3632 9.30233 15.1503 8.91749 16.0713C8.53265 16.9922 8.43195 18.0056 8.62814 18.9833C8.82434 19.9609 9.3086 20.859 10.0197 21.5638C10.7308 22.2687 11.6368 22.7487 12.6231 22.9432C13.6094 23.1376 14.6318 23.0378 15.5608 22.6564C16.4899 22.2749 17.284 21.6289 17.8427 20.8001C18.4014 19.9712 18.6996 18.9968 18.6996 18C18.6996 16.6633 18.164 15.3814 17.2104 14.4362C16.2569 13.491 14.9636 12.96 13.615 12.96Z" stroke="white" stroke-width="2" stroke-linecap="square" stroke-linejoin="round"/>
</svg>
