<svg width="37" height="28" viewBox="0 0 37 28" fill="none" xmlns="http://www.w3.org/2000/svg">
<path d="M32.375 0H4.625C3.39878 0.00126336 2.22315 0.470986 1.35608 1.3061C0.489008 2.14122 0.0013117 3.27351 0 4.45455V23.5455C0.0013117 24.7265 0.489008 25.8588 1.35608 26.6939C2.22315 27.529 3.39878 27.9987 4.625 28H32.375C33.6012 27.9987 34.7768 27.529 35.6439 26.6939C36.511 25.8588 36.9987 24.7265 37 23.5455V4.45455C36.9987 3.27351 36.511 2.14122 35.6439 1.3061C34.7768 0.470986 33.6012 0.00126336 32.375 0ZM31.2039 7.3683L19.311 16.2774C19.0791 16.451 18.7937 16.5453 18.5 16.5453C18.2063 16.5453 17.9209 16.451 17.689 16.2774L5.79612 7.3683C5.65639 7.26666 5.53902 7.1393 5.45084 6.9936C5.36266 6.84791 5.30542 6.68678 5.28245 6.51959C5.25948 6.35241 5.27124 6.18249 5.31704 6.01972C5.36285 5.85695 5.44178 5.70457 5.54926 5.57143C5.65673 5.43829 5.79061 5.32706 5.94311 5.24418C6.09561 5.16131 6.26368 5.10846 6.43757 5.08869C6.61146 5.06892 6.7877 5.08264 6.95604 5.12904C7.12438 5.17544 7.28146 5.2536 7.41817 5.35898L18.5 13.6603L29.5818 5.35898C29.8589 5.15743 30.2073 5.06903 30.5515 5.1129C30.8958 5.15677 31.2082 5.32939 31.4214 5.59342C31.6345 5.85745 31.7312 6.19167 31.6905 6.52381C31.6498 6.85595 31.475 7.15931 31.2039 7.3683Z" fill="#BE7E5E"/>
</svg>
