<svg width="29" height="30" viewBox="0 0 29 30" fill="none" xmlns="http://www.w3.org/2000/svg">
<path d="M23.2372 29.4998C21.9734 29.4998 20.1981 29.0427 17.5396 27.5578C14.3069 25.7452 11.8064 24.0719 8.59118 20.8657C5.49117 17.7682 3.9826 15.7628 1.87126 11.9215C-0.513962 7.58442 -0.107361 5.311 0.347152 4.33936C0.888423 3.17805 1.68738 2.48346 2.72007 1.79406C3.30663 1.40983 3.92736 1.08045 4.57438 0.810117C4.63912 0.782282 4.69934 0.755742 4.75308 0.731791C5.07357 0.587436 5.55915 0.369286 6.17424 0.602325C6.58472 0.756389 6.95118 1.07164 7.52483 1.63805C8.70125 2.79807 10.3089 5.38156 10.9019 6.65032C11.3001 7.50544 11.5636 8.06991 11.5643 8.703C11.5643 9.44419 11.1914 10.0158 10.7388 10.6327C10.654 10.7486 10.5698 10.8593 10.4882 10.9667C9.99551 11.614 9.88738 11.8011 9.9586 12.1351C10.103 12.8064 11.1797 14.8047 12.9492 16.57C14.7187 18.3353 16.6597 19.3438 17.3337 19.4875C17.6821 19.562 17.8731 19.4493 18.5413 18.9392C18.6371 18.8661 18.7355 18.7903 18.8384 18.7146C19.5286 18.2013 20.0738 17.8381 20.7976 17.8381H20.8015C21.4315 17.8381 21.9708 18.1113 22.8643 18.5618C24.0297 19.1496 26.6914 20.7362 27.8588 21.9137C28.4266 22.4859 28.7432 22.851 28.8979 23.2608C29.131 23.8777 28.9115 24.3612 28.7684 24.6849C28.7445 24.7386 28.7179 24.7976 28.6901 24.8629C28.4176 25.5087 28.0862 26.128 27.7001 26.713C27.0119 27.7423 26.3146 28.5391 25.1505 29.0809C24.5527 29.3636 23.8985 29.5068 23.2372 29.4998Z" fill="#BE7E5E"/>
</svg>
